<?xml version="1.0" encoding="UTF-8" standalone="no"?>
<!-- Created with Inkscape (http://www.inkscape.org/) -->

<svg
   xmlns:dc="http://purl.org/dc/elements/1.1/"
   xmlns:cc="http://creativecommons.org/ns#"
   xmlns:rdf="http://www.w3.org/1999/02/22-rdf-syntax-ns#"
   xmlns:svg="http://www.w3.org/2000/svg"
   xmlns="http://www.w3.org/2000/svg"
   xmlns:sodipodi="http://sodipodi.sourceforge.net/DTD/sodipodi-0.dtd"
   xmlns:inkscape="http://www.inkscape.org/namespaces/inkscape"
   width="129.46536mm"
   height="99.531181mm"
   viewBox="0 0 129.46536 99.531181"
   version="1.1"
   id="svg8"
   inkscape:version="0.92.5 (0.92.5+69)"
   sodipodi:docname="runninlate3.svg"
   inkscape:export-filename="/home/algot/Documents/runeman.org/clipart/2021/runninlate2-f.png"
   inkscape:export-xdpi="98.095734"
   inkscape:export-ydpi="98.095734">
  <title
     id="title945">Running Late</title>
  <defs
     id="defs2" />
  <sodipodi:namedview
     id="base"
     pagecolor="#ffffff"
     bordercolor="#666666"
     borderopacity="1.0"
     inkscape:pageopacity="0.0"
     inkscape:pageshadow="2"
     inkscape:zoom="0.70710678"
     inkscape:cx="454.73253"
     inkscape:cy="53.068365"
     inkscape:document-units="mm"
     inkscape:current-layer="layer1"
     showgrid="false"
     inkscape:snap-global="false"
     inkscape:window-width="1366"
     inkscape:window-height="703"
     inkscape:window-x="0"
     inkscape:window-y="0"
     inkscape:window-maximized="1">
    <inkscape:grid
       type="xygrid"
       id="grid21"
       originx="4.1801476"
       originy="-164.05985" />
  </sodipodi:namedview>
  <metadata
     id="metadata5">
    <rdf:RDF>
      <cc:Work
         rdf:about="">
        <dc:format>image/svg+xml</dc:format>
        <dc:type
           rdf:resource="http://purl.org/dc/dcmitype/StillImage" />
        <dc:title>Running Late</dc:title>
        <dc:date>2021-08-25</dc:date>
        <dc:creator>
          <cc:Agent>
            <dc:title>Algot Runeman</dc:title>
          </cc:Agent>
        </dc:creator>
        <dc:rights>
          <cc:Agent>
            <dc:title>Algot Runeman</dc:title>
          </cc:Agent>
        </dc:rights>
        <dc:publisher>
          <cc:Agent>
            <dc:title>runeman.org</dc:title>
          </cc:Agent>
        </dc:publisher>
        <dc:identifier>runninglate3.svg</dc:identifier>
        <dc:language>en-US</dc:language>
        <dc:coverage>worldwide</dc:coverage>
        <cc:license
           rdf:resource="http://creativecommons.org/publicdomain/zero/1.0/" />
      </cc:Work>
      <cc:License
         rdf:about="http://creativecommons.org/publicdomain/zero/1.0/">
        <cc:permits
           rdf:resource="http://creativecommons.org/ns#Reproduction" />
        <cc:permits
           rdf:resource="http://creativecommons.org/ns#Distribution" />
        <cc:permits
           rdf:resource="http://creativecommons.org/ns#DerivativeWorks" />
      </cc:License>
    </rdf:RDF>
  </metadata>
  <g
     inkscape:label="Layer 1"
     inkscape:groupmode="layer"
     id="layer1"
     transform="translate(4.1801476,-33.40897)">
    <rect
       style="opacity:1;fill:#ffff5f;fill-opacity:1;stroke:none;stroke-width:1.75360894;stroke-linecap:round;stroke-linejoin:bevel;stroke-miterlimit:4;stroke-dasharray:none;stroke-opacity:1"
       id="rect904"
       width="129.46536"
       height="99.531181"
       x="-4.1801476"
       y="33.40897"
       ry="0.44245714" />
    <g
       id="g924">
      <g
         transform="translate(-2.6458334,-1.0583333)"
         id="g902">
        <path
           style="fill:#000000;stroke:#000000;stroke-width:0.23489355px;stroke-linecap:butt;stroke-linejoin:miter;stroke-opacity:1"
           d="m 89.329678,78.299877 7.62124,-2.522104 2.255108,2.439158 -7.676445,3.930374 C 90.35395,83.18139 89.118532,84.047168 86.835316,81.963267 L 84.67222,77.176987 81.828189,89.75949 c 0,0 3.688331,4.208925 4.455018,6.28657 1.084262,2.938245 -0.368073,9.38854 -0.368073,9.38854 l -4.694265,-0.18404 c 0,0 1.302437,-4.92857 0.276055,-7.04139 -1.23356,-2.539301 -4.988856,-4.662001 -4.988856,-4.662001 0,0 -2.912849,4.733752 -4.491692,6.641051 -1.800159,2.17467 -5.076208,3.56219 -5.076208,3.56219 l 0.0184,-0.46944 -1.712073,-4.298449 c 0,0 2.447038,-0.854229 3.875035,-2.904039 1.038115,-1.490152 0.915782,-5.37081 0.915782,-5.37081 0.589792,-2.76391 0.632501,-6.346511 2.172165,-7.437219 l 4.781614,-8.040116 -6.032742,3.018404 -3.037403,5.522698 -3.285985,-0.128826 c 0,0 1.543001,-6.576813 4.132686,-9.476004 2.523172,-2.824733 5.443293,-3.479076 9.139227,-4.307071 2.29212,-0.513496 5.049655,-0.969125 7.041397,0.276058 2.618886,1.637238 4.381403,8.164281 4.381403,8.164281 z"
           id="path23"
           inkscape:connector-curvature="0"
           sodipodi:nodetypes="cccccccsccscscccsccccccsssc" />
        <path
           transform="rotate(2.2451037)"
           style="opacity:1;fill:#000000;fill-opacity:1;stroke:none;stroke-width:0.07766275;stroke-linecap:round;stroke-linejoin:bevel;stroke-opacity:1"
           d="m 72.286659,98.854858 a 2.6633601,2.6633601 0 0 1 -2.66336,2.663362 2.6633601,2.6633601 0 0 1 -2.66336,-2.663362 2.6633601,2.6633601 0 0 1 2.66336,-2.66336 2.6633601,2.6633601 0 0 1 2.66336,2.66336 z"
           id="path25" />
        <path
           transform="rotate(2.2451037)"
           style="opacity:1;fill:#000000;fill-opacity:1;stroke:none;stroke-width:0.07766275;stroke-linecap:round;stroke-linejoin:bevel;stroke-opacity:1"
           d="m 90.138587,101.67355 a 2.6633601,2.6633601 0 0 1 -2.66336,2.66336 2.6633601,2.6633601 0 0 1 -2.66336,-2.66336 2.6633601,2.6633601 0 0 1 2.66336,-2.663357 2.6633601,2.6633601 0 0 1 2.66336,2.663357 z"
           id="circle29" />
        <path
           transform="rotate(2.2451037)"
           style="opacity:1;fill:#000000;fill-opacity:1;stroke:none;stroke-width:0.05177517;stroke-linecap:round;stroke-linejoin:bevel;stroke-opacity:1"
           d="m 71.159858,80.680496 a 1.7755734,1.7755734 0 0 1 -1.775573,1.775574 1.7755734,1.7755734 0 0 1 -1.775573,-1.775574 1.7755734,1.7755734 0 0 1 1.775573,-1.775573 1.7755734,1.7755734 0 0 1 1.775573,1.775573 z"
           id="circle33" />
        <path
           transform="rotate(2.2451037)"
           style="opacity:1;fill:#000000;fill-opacity:1;stroke:none;stroke-width:0.05177517;stroke-linecap:round;stroke-linejoin:bevel;stroke-opacity:1"
           d="m 103.16132,72.964737 a 1.7755734,1.7755734 0 0 1 -1.77557,1.775573 1.7755734,1.7755734 0 0 1 -1.775574,-1.775573 1.7755734,1.7755734 0 0 1 1.775574,-1.775573 1.7755734,1.7755734 0 0 1 1.77557,1.775573 z"
           id="circle35" />
        <path
           transform="rotate(2.2451037)"
           style="opacity:1;fill:#000000;fill-opacity:1;stroke:none;stroke-width:0.08877867;stroke-linecap:round;stroke-linejoin:bevel;stroke-opacity:1"
           d="m 93.268023,61.351391 a 4.4629774,4.4629774 0 0 1 -4.462977,4.462977 4.4629774,4.4629774 0 0 1 -4.462977,-4.462977 4.4629774,4.4629774 0 0 1 4.462977,-4.462978 4.4629774,4.4629774 0 0 1 4.462977,4.462978 z"
           id="path37" />
        <g
           id="g67"
           transform="matrix(0.88778667,0,0,0.88778667,48.936548,-55.535546)">
          <path
             inkscape:connector-curvature="0"
             id="path53"
             d="m 77.258332,131.63537 a 7.4083332,7.4083332 0 0 0 -7.408333,7.40833 7.4083332,7.4083332 0 0 0 7.408333,7.40834 7.4083332,7.4083332 0 0 0 7.408334,-7.40834 7.4083332,7.4083332 0 0 0 -7.408334,-7.40833 z m 0,2.38125 a 5.0270833,5.0270833 0 0 1 5.027084,5.02708 5.0270833,5.0270833 0 0 1 -5.027084,5.02709 5.0270833,5.0270833 0 0 1 -5.027083,-5.02709 5.0270833,5.0270833 0 0 1 5.027083,-5.02708 z"
             style="opacity:1;fill:#000000;fill-opacity:1;stroke:none;stroke-width:0.1;stroke-linecap:round;stroke-linejoin:bevel;stroke-opacity:1" />
          <path
             sodipodi:nodetypes="ccc"
             inkscape:connector-curvature="0"
             id="path58"
             d="m 77.439344,134.81042 -1e-6,4.47237 3.276872,-0.17246"
             style="fill:none;stroke:#000000;stroke-width:1.3036871;stroke-linecap:round;stroke-linejoin:bevel;stroke-opacity:1" />
        </g>
        <path
           style="fill:none;stroke:#000000;stroke-width:1.77557337;stroke-linecap:round;stroke-linejoin:miter;stroke-miterlimit:4;stroke-dasharray:none;stroke-opacity:1"
           d="m 101.78758,64.382241 7.51659,-0.2349"
           id="path69"
           inkscape:connector-curvature="0" />
        <path
           inkscape:connector-curvature="0"
           id="path876"
           d="m 99.908433,67.670771 7.516587,-0.234899"
           style="fill:none;stroke:#000000;stroke-width:1.77557337;stroke-linecap:round;stroke-linejoin:miter;stroke-miterlimit:4;stroke-dasharray:none;stroke-opacity:1" />
        <path
           style="fill:none;stroke:#000000;stroke-width:1.77557337;stroke-linecap:round;stroke-linejoin:miter;stroke-miterlimit:4;stroke-dasharray:none;stroke-opacity:1"
           d="m 98.029292,70.959302 7.516578,-0.2349"
           id="path878"
           inkscape:connector-curvature="0" />
      </g>
      <g
         aria-label="               RUNNING
  LATE
IS MY
     EXERCISE"
         style="font-style:normal;font-variant:normal;font-weight:normal;font-stretch:normal;font-size:16.63902473px;line-height:1.25;font-family:Jellee;-inkscape-font-specification:Jellee;text-align:center;letter-spacing:0px;word-spacing:0px;text-anchor:middle;stroke-width:0.44568816"
         id="text882">
        <path
           d="m 23.497216,56.785068 c 0,0.881868 0.715478,1.597346 1.597346,1.597346 0.881869,0 1.597347,-0.715478 1.597347,-1.597346 v -2.828634 h 1.680541 l 1.863571,3.594029 c 0.249585,0.499171 0.782034,0.831951 1.3644,0.831951 0.865229,0 1.547429,-0.6822 1.547429,-1.53079 0,-0.266225 -0.06656,-0.51581 -0.183029,-0.715478 l -1.564068,-3.011664 v -0.03328 c 1.381039,-0.6822 2.229629,-1.896849 2.229629,-3.560751 0,-2.462576 -1.780376,-3.843615 -4.642288,-3.843615 h -4.076561 c -0.915146,0 -1.414317,0.499171 -1.414317,1.414317 z m 3.194693,-5.357766 v -3.394361 h 1.613985 c 1.081537,0 2.0466,0.299502 2.0466,1.713819 0,1.381039 -0.965063,1.680542 -2.0466,1.680542 z"
           style="font-style:normal;font-variant:normal;font-weight:normal;font-stretch:normal;font-family:Jellee;-inkscape-font-specification:Jellee;stroke-width:0.44568816"
           id="path36" />
        <path
           d="m 35.444031,53.473902 c 0,2.945107 1.297844,5.058263 5.274571,5.058263 3.843615,0 5.191376,-2.163073 5.191376,-5.058263 v -6.339469 c 0,-0.865229 -0.715478,-1.580707 -1.597347,-1.580707 -0.865229,0 -1.580707,0.715478 -1.580707,1.580707 v 6.439303 c 0,1.347761 -0.582366,2.312824 -2.029961,2.312824 -1.464234,0 -2.0466,-0.915146 -2.0466,-2.312824 v -6.422664 c 0,-0.881868 -0.715478,-1.597346 -1.597347,-1.597346 -0.898507,0 -1.613985,0.715478 -1.613985,1.597346 z"
           style="font-style:normal;font-variant:normal;font-weight:normal;font-stretch:normal;font-family:Jellee;-inkscape-font-specification:Jellee;stroke-width:0.44568816"
           id="path38" />
        <path
           d="m 48.322621,56.91818 c 0,0.798673 0.665561,1.464234 1.480873,1.464234 0.798673,0 1.464234,-0.665561 1.464234,-1.464234 v -6.738805 h 0.0832 c 0.183029,0.532449 0.399336,0.915146 0.748756,1.464234 l 3.494195,5.757103 c 0.349419,0.582366 0.998341,0.981702 1.747097,0.981702 1.114815,0 2.029961,-0.915146 2.029961,-2.029961 v -9.351132 c 0,-0.798673 -0.648921,-1.447595 -1.447595,-1.447595 -0.815312,0 -1.464234,0.648922 -1.464234,1.447595 v 6.555776 h -0.0832 c -0.249585,-0.51581 -0.366059,-0.84859 -0.715478,-1.430956 l -3.327805,-5.524156 c -0.382698,-0.615644 -1.064898,-1.048259 -1.846932,-1.048259 -1.19801,0 -2.163073,0.981702 -2.163073,2.163073 z"
           style="font-style:normal;font-variant:normal;font-weight:normal;font-stretch:normal;font-family:Jellee;-inkscape-font-specification:Jellee;stroke-width:0.44568816"
           id="path40" />
        <path
           d="m 61.866772,56.91818 c 0,0.798673 0.665561,1.464234 1.480874,1.464234 0.798673,0 1.464234,-0.665561 1.464234,-1.464234 v -6.738805 h 0.0832 c 0.183029,0.532449 0.399336,0.915146 0.748756,1.464234 l 3.494195,5.757103 c 0.34942,0.582366 0.998342,0.981702 1.747098,0.981702 1.114814,0 2.029961,-0.915146 2.029961,-2.029961 v -9.351132 c 0,-0.798673 -0.648922,-1.447595 -1.447595,-1.447595 -0.815313,0 -1.464235,0.648922 -1.464235,1.447595 v 6.555776 h -0.08319 c -0.249585,-0.51581 -0.366058,-0.84859 -0.715478,-1.430956 l -3.327805,-5.524156 c -0.382697,-0.615644 -1.064897,-1.048259 -1.846931,-1.048259 -1.19801,0 -2.163074,0.981702 -2.163074,2.163073 z"
           style="font-style:normal;font-variant:normal;font-weight:normal;font-stretch:normal;font-family:Jellee;-inkscape-font-specification:Jellee;stroke-width:0.44568816"
           id="path42" />
        <path
           d="m 75.410924,56.785068 c 0,0.881868 0.715478,1.597346 1.597346,1.597346 0.881868,0 1.597346,-0.715478 1.597346,-1.597346 v -9.633996 c 0,-0.881868 -0.715478,-1.597346 -1.597346,-1.597346 -0.881868,0 -1.597346,0.715478 -1.597346,1.597346 z"
           style="font-style:normal;font-variant:normal;font-weight:normal;font-stretch:normal;font-family:Jellee;-inkscape-font-specification:Jellee;stroke-width:0.44568816"
           id="path44" />
        <path
           d="m 81.101453,56.91818 c 0,0.798673 0.665561,1.464234 1.480873,1.464234 0.798673,0 1.464234,-0.665561 1.464234,-1.464234 v -6.738805 h 0.0832 c 0.183029,0.532449 0.399337,0.915146 0.748756,1.464234 l 3.494195,5.757103 c 0.34942,0.582366 0.998342,0.981702 1.747098,0.981702 1.114815,0 2.029961,-0.915146 2.029961,-2.029961 v -9.351132 c 0,-0.798673 -0.648922,-1.447595 -1.447595,-1.447595 -0.815312,0 -1.464234,0.648922 -1.464234,1.447595 v 6.555776 h -0.0832 c -0.249586,-0.51581 -0.366059,-0.84859 -0.715479,-1.430956 l -3.327805,-5.524156 c -0.382697,-0.615644 -1.064897,-1.048259 -1.846931,-1.048259 -1.19801,0 -2.163073,0.981702 -2.163073,2.163073 z"
           style="font-style:normal;font-variant:normal;font-weight:normal;font-stretch:normal;font-family:Jellee;-inkscape-font-specification:Jellee;stroke-width:0.44568816"
           id="path46" />
        <path
           d="m 94.096516,52.126141 c 0,4.109839 2.279546,6.389385 5.524156,6.389385 1.747098,0 2.678888,-0.582366 3.394358,-1.630624 h 0.16639 v 0.216307 c 0,0.898508 0.64893,1.281205 1.28121,1.281205 0.71548,0 1.29784,-0.399336 1.29784,-1.281205 v -4.409341 c 0,-0.915147 -0.49917,-1.414317 -1.41431,-1.414317 h -3.22798 c -0.599,0 -1.09817,0.49917 -1.09817,1.098175 0,0.615644 0.49917,1.114815 1.09817,1.114815 h 1.73046 v 0.133112 c 0,1.247927 -0.83195,2.445937 -2.57905,2.445937 -1.530786,0 -2.878547,-1.214649 -2.878547,-4.143117 0,-2.91183 1.331122,-4.093201 2.911827,-4.093201 2.27955,0 1.71382,1.797015 3.44428,1.797015 0.78203,0 1.28121,-0.615644 1.28121,-1.414317 0,-1.747098 -2.4293,-2.795356 -4.72549,-2.795356 -3.643944,0 -6.206354,2.495854 -6.206354,6.705527 z"
           style="font-style:normal;font-variant:normal;font-weight:normal;font-stretch:normal;font-family:Jellee;-inkscape-font-specification:Jellee;stroke-width:0.44568816"
           id="path48" />
        <path
           d="m 17.374248,77.633766 c 0,0.915146 0.499171,1.414317 1.414318,1.414317 h 6.173078 c 0.715478,0 1.297844,-0.582366 1.297844,-1.314483 0,-0.715478 -0.582366,-1.297844 -1.297844,-1.297844 h -4.392703 v -8.485903 c 0,-0.881868 -0.715478,-1.597346 -1.597346,-1.597346 -0.881868,0 -1.597347,0.715478 -1.597347,1.597346 z"
           style="font-style:normal;font-variant:normal;font-weight:normal;font-stretch:normal;font-family:Jellee;-inkscape-font-specification:Jellee;stroke-width:0.44568816"
           id="path50" />
        <path
           d="m 27.041516,77.7336 c 0,0.798673 0.648922,1.447595 1.447595,1.447595 0.665561,0 1.214649,-0.415976 1.397678,-1.01498 l 0.549088,-1.780376 h 4.525815 l 0.549087,1.747097 c 0.199669,0.599005 0.765395,1.048259 1.447595,1.048259 0.831952,0 1.514152,-0.6822 1.514152,-1.514151 0,-0.16639 -0.03328,-0.332781 -0.0832,-0.499171 l -3.128137,-9.051629 c -0.34942,-1.03162 -1.331122,-1.763737 -2.479215,-1.763737 -1.164731,0 -2.146434,0.732117 -2.495853,1.763737 l -3.161415,9.151463 c -0.04992,0.149751 -0.08319,0.299503 -0.08319,0.465893 z m 4.176395,-3.810337 0.798673,-2.545771 c 0.249586,-0.798673 0.399337,-1.381039 0.582366,-2.113156 h 0.199668 c 0.166391,0.732117 0.316142,1.314483 0.582366,2.113156 l 0.798673,2.545771 z"
           style="font-style:normal;font-variant:normal;font-weight:normal;font-stretch:normal;font-family:Jellee;-inkscape-font-specification:Jellee;stroke-width:0.44568816"
           id="path52" />
        <path
           d="m 37.424248,67.750185 c 0,0.698839 0.565727,1.264566 1.264566,1.264566 h 2.39602 v 8.569098 c 0,0.881868 0.715478,1.597346 1.597346,1.597346 0.881868,0 1.597347,-0.715478 1.597347,-1.597346 v -8.569098 h 2.396019 c 0.698839,0 1.264566,-0.565727 1.264566,-1.264566 0,-0.698839 -0.565727,-1.264566 -1.264566,-1.264566 h -7.986732 c -0.698839,0 -1.264566,0.565727 -1.264566,1.264566 z"
           style="font-style:normal;font-variant:normal;font-weight:normal;font-stretch:normal;font-family:Jellee;-inkscape-font-specification:Jellee;stroke-width:0.44568816"
           id="path54" />
        <path
           d="m 49.354406,77.633766 c 0,0.915146 0.499171,1.414317 1.414317,1.414317 h 6.455942 c 0.698839,0 1.281205,-0.582366 1.281205,-1.297844 0,-0.698839 -0.582366,-1.281205 -1.281205,-1.281205 h -4.708844 v -2.445937 h 3.610668 c 0.6822,0 1.247927,-0.565726 1.247927,-1.264566 0,-0.6822 -0.565727,-1.247926 -1.247927,-1.247926 h -3.610668 v -2.445937 h 4.376064 c 0.698839,0 1.281204,-0.582366 1.281204,-1.281205 0,-0.715478 -0.582365,-1.297844 -1.281204,-1.297844 h -6.123162 c -0.915146,0 -1.414317,0.499171 -1.414317,1.414317 z"
           style="font-style:normal;font-variant:normal;font-weight:normal;font-stretch:normal;font-family:Jellee;-inkscape-font-specification:Jellee;stroke-width:0.44568816"
           id="path56" />
        <path
           d="m 9.8285022,98.38263 c 0,0.881868 0.7154778,1.597346 1.5973468,1.597346 0.881868,0 1.597346,-0.715478 1.597346,-1.597346 v -9.633996 c 0,-0.881868 -0.715478,-1.597346 -1.597346,-1.597346 -0.881869,0 -1.5973468,0.715478 -1.5973468,1.597346 z"
           style="font-style:normal;font-variant:normal;font-weight:normal;font-stretch:normal;font-family:Jellee;-inkscape-font-specification:Jellee;stroke-width:0.44568816"
           id="path59" />
        <path
           d="m 15.23617,90.845151 c 0,2.063239 1.148092,3.227971 3.477556,3.727142 l 2.0466,0.432615 c 1.19801,0.249585 1.514151,0.648922 1.514151,1.231287 0,0.798674 -0.715478,1.19801 -2.0466,1.19801 -1.996683,0 -2.229629,-1.331122 -3.627307,-1.331122 -0.831952,0 -1.514152,0.549088 -1.514152,1.381039 0,1.946766 2.762078,2.645608 5.274571,2.645608 3.910171,0 5.257932,-1.980047 5.257932,-4.109842 0,-1.88021 -1.014981,-3.178054 -3.560751,-3.727141 l -2.029961,-0.432615 c -1.264566,-0.266225 -1.580708,-0.715478 -1.580708,-1.331122 0,-0.582366 0.632283,-1.081537 1.71382,-1.081537 1.930127,0 1.930127,1.514152 3.344444,1.514152 0.798673,0 1.447595,-0.582366 1.447595,-1.38104 0,-1.797014 -2.845273,-2.595687 -4.708844,-2.595687 -3.194693,0 -5.008346,1.680541 -5.008346,3.860253 z"
           style="font-style:normal;font-variant:normal;font-weight:normal;font-stretch:normal;font-family:Jellee;-inkscape-font-specification:Jellee;stroke-width:0.44568816"
           id="path61" />
        <path
           d="m 31.675474,98.499103 c 0,0.815312 0.665561,1.480873 1.497512,1.480873 0.815312,0 1.480873,-0.665561 1.480873,-1.480873 v -7.138142 h 0.09983 c 0.03328,0.216307 0.0832,0.449254 0.133112,0.6822 0.0832,0.399337 0.232947,0.948425 0.415976,1.480873 l 1.88021,5.341127 c 0.216307,0.632283 0.831951,1.114815 1.564068,1.114815 0.715478,0 1.347761,-0.482532 1.564069,-1.114815 l 1.86357,-5.341127 c 0.18303,-0.532448 0.332781,-1.064897 0.415976,-1.480873 l 0.133112,-0.6822 h 0.09983 v 7.071586 c 0,0.84859 0.698839,1.547429 1.54743,1.547429 0.865229,0 1.564068,-0.698839 1.564068,-1.547429 v -8.918518 c 0,-1.297844 -1.064898,-2.362741 -2.362742,-2.362741 -1.031619,0 -1.930126,0.665561 -2.246268,1.580707 l -1.980044,5.673908 c -0.16639,0.465892 -0.249585,0.831951 -0.316141,1.114814 l -0.08319,0.465893 h -0.09983 l -0.0832,-0.465893 c -0.04992,-0.282863 -0.149751,-0.665561 -0.299502,-1.114814 l -1.980044,-5.607352 c -0.332781,-0.965063 -1.247927,-1.647263 -2.329464,-1.647263 -1.3644,0 -2.479214,1.114815 -2.479214,2.479215 z"
           style="font-style:normal;font-variant:normal;font-weight:normal;font-stretch:normal;font-family:Jellee;-inkscape-font-specification:Jellee;stroke-width:0.44568816"
           id="path63" />
        <path
           d="m 47.881885,88.598883 c 0,0.282863 0.0832,0.532449 0.199668,0.748756 l 3.094859,5.29121 v 3.743781 c 0,0.881868 0.715478,1.597346 1.597346,1.597346 0.881868,0 1.597346,-0.715478 1.597346,-1.597346 v -3.893532 l 3.011664,-5.307849 c 0.116473,-0.199668 0.183029,-0.432615 0.183029,-0.665561 0,-0.748756 -0.615644,-1.3644 -1.3644,-1.3644 -0.532449,0 -0.998341,0.299502 -1.214649,0.732117 l -2.129795,4.126478 -2.246268,-4.0932 c -0.249586,-0.465893 -0.715478,-0.765395 -1.264566,-0.765395 -0.815312,0 -1.464234,0.648922 -1.464234,1.447595 z"
           style="font-style:normal;font-variant:normal;font-weight:normal;font-stretch:normal;font-family:Jellee;-inkscape-font-specification:Jellee;stroke-width:0.44568816"
           id="path65" />
        <path
           d="m 2.4656524,119.23133 c 0,0.91514 0.4991707,1.41431 1.4143171,1.41431 h 6.4559415 c 0.698839,0 1.281205,-0.58236 1.281205,-1.29784 0,-0.69884 -0.582366,-1.2812 -1.281205,-1.2812 H 5.6270671 v -2.44594 h 3.6106684 c 0.6822,0 1.2479265,-0.56573 1.2479265,-1.26457 0,-0.6822 -0.5657265,-1.24792 -1.2479265,-1.24792 H 5.6270671 v -2.44594 h 4.3760639 c 0.698839,0 1.281205,-0.58237 1.281205,-1.28121 0,-0.71547 -0.582366,-1.29784 -1.281205,-1.29784 H 3.8799695 c -0.9151464,0 -1.4143171,0.49917 -1.4143171,1.41432 z"
           style="font-style:normal;font-variant:normal;font-weight:normal;font-stretch:normal;font-family:Jellee;-inkscape-font-specification:Jellee;stroke-width:0.44568816"
           id="path67" />
        <path
           d="m 12.632089,119.3478 c 0,0.79867 0.632283,1.43096 1.430956,1.43096 0.532449,0 0.981702,-0.29951 1.231288,-0.71548 l 1.946765,-3.39436 1.946766,3.37772 c 0.249586,0.44925 0.732117,0.73212 1.264566,0.73212 0.815312,0 1.464234,-0.64893 1.464234,-1.46424 0,-0.28286 -0.08319,-0.53245 -0.216307,-0.76539 l -2.662244,-4.25959 2.628966,-4.24295 c 0.133112,-0.19967 0.216307,-0.44926 0.216307,-0.71548 0,-0.7654 -0.615644,-1.38104 -1.381039,-1.38104 -0.49917,0 -0.948424,0.26622 -1.18137,0.6822 l -1.930127,3.29453 -1.913488,-3.26125 c -0.249586,-0.41598 -0.715478,-0.71548 -1.231288,-0.71548 -0.798673,0 -1.447595,0.64892 -1.447595,1.44759 0,0.26623 0.08319,0.51581 0.216307,0.74876 l 2.529132,4.12648 -2.695522,4.32614 c -0.133112,0.23295 -0.216307,0.48254 -0.216307,0.74876 z"
           style="font-style:normal;font-variant:normal;font-weight:normal;font-stretch:normal;font-family:Jellee;-inkscape-font-specification:Jellee;stroke-width:0.44568816"
           id="path70" />
        <path
           d="m 23.64711,119.23133 c 0,0.91514 0.499171,1.41431 1.414317,1.41431 h 6.455942 c 0.698839,0 1.281205,-0.58236 1.281205,-1.29784 0,-0.69884 -0.582366,-1.2812 -1.281205,-1.2812 h -4.708844 v -2.44594 h 3.610668 c 0.6822,0 1.247927,-0.56573 1.247927,-1.26457 0,-0.6822 -0.565727,-1.24792 -1.247927,-1.24792 h -3.610668 v -2.44594 h 4.376063 c 0.698839,0 1.281205,-0.58237 1.281205,-1.28121 0,-0.71547 -0.582366,-1.29784 -1.281205,-1.29784 h -6.123161 c -0.915146,0 -1.414317,0.49917 -1.414317,1.41432 z"
           style="font-style:normal;font-variant:normal;font-weight:normal;font-stretch:normal;font-family:Jellee;-inkscape-font-specification:Jellee;stroke-width:0.44568816"
           id="path72" />
        <path
           d="m 34.578941,119.18141 c 0,0.88187 0.715478,1.59735 1.597347,1.59735 0.881868,0 1.597346,-0.71548 1.597346,-1.59735 v -2.82863 h 1.680542 l 1.86357,3.59403 c 0.249586,0.49917 0.782034,0.83195 1.3644,0.83195 0.86523,0 1.54743,-0.6822 1.54743,-1.53079 0,-0.26623 -0.06656,-0.51581 -0.18303,-0.71548 l -1.564068,-3.01166 v -0.0333 c 1.381039,-0.6822 2.229629,-1.89685 2.229629,-3.56075 0,-2.46258 -1.780375,-3.84362 -4.642288,-3.84362 h -4.076561 c -0.915146,0 -1.414317,0.49917 -1.414317,1.41432 z m 3.194693,-5.35777 v -3.39436 h 1.613985 c 1.081537,0 2.0466,0.29951 2.0466,1.71382 0,1.38104 -0.965063,1.68054 -2.0466,1.68054 z"
           style="font-style:normal;font-variant:normal;font-weight:normal;font-stretch:normal;font-family:Jellee;-inkscape-font-specification:Jellee;stroke-width:0.44568816"
           id="path74" />
        <path
           d="m 46.05986,114.47257 c 0,3.99336 2.096517,6.45594 6.156439,6.45594 2.21299,0 5.074903,-0.96507 5.074903,-3.0283 0,-0.86523 -0.698839,-1.56407 -1.54743,-1.56407 -1.630624,0 -1.314483,2.07988 -3.527473,2.07988 -1.514151,0 -2.795356,-1.18138 -2.795356,-4.0932 0,-2.812 1.214649,-3.99337 2.795356,-3.99337 2.113156,0 1.846932,1.86357 3.377722,1.86357 0.831951,0 1.514151,-0.66556 1.514151,-1.51415 0,-1.99668 -2.828634,-2.86191 -4.891873,-2.86191 -3.777059,0 -6.156439,2.71216 -6.156439,6.65561 z"
           style="font-style:normal;font-variant:normal;font-weight:normal;font-stretch:normal;font-family:Jellee;-inkscape-font-specification:Jellee;stroke-width:0.44568816"
           id="path76" />
        <path
           d="m 59.054924,119.18141 c 0,0.88187 0.715478,1.59735 1.597346,1.59735 0.881869,0 1.597347,-0.71548 1.597347,-1.59735 v -9.63399 c 0,-0.88187 -0.715478,-1.59735 -1.597347,-1.59735 -0.881868,0 -1.597346,0.71548 -1.597346,1.59735 z"
           style="font-style:normal;font-variant:normal;font-weight:normal;font-stretch:normal;font-family:Jellee;-inkscape-font-specification:Jellee;stroke-width:0.44568816"
           id="path78" />
        <path
           d="m 64.462597,111.64393 c 0,2.06324 1.148093,3.22797 3.477556,3.72714 l 2.0466,0.43262 c 1.19801,0.24958 1.514151,0.64892 1.514151,1.23129 0,0.79867 -0.715478,1.19801 -2.0466,1.19801 -1.996683,0 -2.229629,-1.33113 -3.627307,-1.33113 -0.831951,0 -1.514151,0.54909 -1.514151,1.38104 0,1.94677 2.762078,2.64561 5.274571,2.64561 3.91017,0 5.257931,-1.98005 5.257931,-4.10984 0,-1.88021 -1.01498,-3.17805 -3.560751,-3.72714 l -2.029961,-0.43262 c -1.264566,-0.26622 -1.580707,-0.71548 -1.580707,-1.33112 0,-0.58237 0.632283,-1.08154 1.713819,-1.08154 1.930127,0 1.930127,1.51416 3.344444,1.51416 0.798673,0 1.447595,-0.58237 1.447595,-1.38104 0,-1.79702 -2.845273,-2.59569 -4.708844,-2.59569 -3.194692,0 -5.008346,1.68054 -5.008346,3.86025 z"
           style="font-style:normal;font-variant:normal;font-weight:normal;font-stretch:normal;font-family:Jellee;-inkscape-font-specification:Jellee;stroke-width:0.44568816"
           id="path80" />
        <path
           d="m 76.742172,119.23133 c 0,0.91514 0.499171,1.41431 1.414317,1.41431 h 6.455942 c 0.698839,0 1.281205,-0.58236 1.281205,-1.29784 0,-0.69884 -0.582366,-1.2812 -1.281205,-1.2812 h -4.708844 v -2.44594 h 3.610668 c 0.6822,0 1.247927,-0.56573 1.247927,-1.26457 0,-0.6822 -0.565727,-1.24792 -1.247927,-1.24792 h -3.610668 v -2.44594 h 4.376063 c 0.698839,0 1.281205,-0.58237 1.281205,-1.28121 0,-0.71547 -0.582366,-1.29784 -1.281205,-1.29784 h -6.123161 c -0.915146,0 -1.414317,0.49917 -1.414317,1.41432 z"
           style="font-style:normal;font-variant:normal;font-weight:normal;font-stretch:normal;font-family:Jellee;-inkscape-font-specification:Jellee;stroke-width:0.44568816"
           id="path82" />
      </g>
    </g>
  </g>
</svg>
